<!-- Generated by IcoMoon.io -->
<svg version="1.1" xmlns="http://www.w3.org/2000/svg" width="32" height="32" viewBox="0 0 32 32">
<title>check-circle</title>
<path d="M17.463 2.018c-1.462-0.144-2.945-0.056-4.397 0.272-2.903 0.656-5.518 2.234-7.452 4.496s-3.084 5.092-3.279 8.063c-0.196 2.97 0.571 5.922 2.191 8.419s4.006 4.406 6.798 5.438c2.792 1.032 5.844 1.131 8.699 0.287s5.361-2.587 7.143-4.971c1.782-2.384 2.745-5.281 2.746-8.257v-1.154c0-0.001 0-0.001 0-0.002 0-0.693-0.561-1.254-1.254-1.255h-0c-0.001 0-0.001 0-0.002 0-0.693 0-1.256 0.562-1.256 1.255 0 0.001 0 0.001 0 0.002v-0 1.154c-0.002 2.434-0.789 4.804-2.246 6.754s-3.51 3.375-5.846 4.066c-2.336 0.691-4.829 0.609-7.114-0.235s-4.237-2.402-5.563-4.445c-1.326-2.043-1.954-4.463-1.794-6.893s1.101-4.74 2.684-6.592c1.582-1.851 3.72-3.143 6.096-3.68s4.86-0.289 7.085 0.702c0.15 0.069 0.326 0.109 0.511 0.109 0.508 0 0.946-0.302 1.144-0.737l0.003-0.008c0.069-0.15 0.109-0.326 0.109-0.511 0-0.508-0.302-0.946-0.737-1.144l-0.008-0.003c-1.36-0.606-2.799-0.984-4.261-1.129z"></path>
<path d="M28.654 4.467c-0.347 0.002-0.66 0.143-0.886 0.371l-11.662 11.669-2.875-2.875c-0.227-0.227-0.541-0.368-0.888-0.368s-0.661 0.141-0.888 0.368v0c-0.227 0.227-0.368 0.541-0.368 0.888s0.141 0.661 0.368 0.888l3.765 3.765c0.227 0.227 0.541 0.368 0.888 0.368s0.661-0.141 0.888-0.368v0l12.548-12.563c0.227-0.227 0.368-0.541 0.368-0.888s-0.141-0.661-0.368-0.888v0c-0.227-0.227-0.541-0.368-0.888-0.368-0.001 0-0.001 0-0.002 0h0z"></path>
</svg>
