<!-- Generated by IcoMoon.io -->
<svg version="1.1" xmlns="http://www.w3.org/2000/svg" width="32" height="32" viewBox="0 0 32 32">
<title>search</title>
<path d="M14.668 2.668c-6.612 0-12 5.388-12 12s5.388 12 12 12c6.612 0 12-5.388 12-12s-5.388-12-12-12zM14.668 5.332c5.171 0 9.332 4.165 9.332 9.336s-4.161 9.332-9.332 9.332c-5.17 0-9.336-4.161-9.336-9.332s4.165-9.336 9.336-9.336z"></path>
<path d="M21.258 21.258c-0.242 0.241-0.391 0.575-0.391 0.943s0.149 0.702 0.391 0.943l5.801 5.797c0.241 0.24 0.574 0.389 0.941 0.389s0.7-0.149 0.941-0.389l-0 0c0.24-0.241 0.389-0.574 0.389-0.941s-0.149-0.7-0.389-0.941l-5.797-5.801c-0.241-0.242-0.575-0.391-0.943-0.391s-0.702 0.149-0.943 0.391v0z"></path>
</svg>
